<svg width="20" height="20" viewBox="0 0 20 20" fill="none" xmlns="http://www.w3.org/2000/svg">
<path d="M16 9.33333V14.6667C16.0001 15.0031 15.8858 15.327 15.6799 15.5737C15.474 15.8204 15.1919 15.9714 14.89 15.9967L14.8 16H5.2C4.89725 16.0001 4.60566 15.8731 4.38367 15.6443C4.16168 15.4156 4.02571 15.1021 4.003 14.7667L4 14.6667V9.33333H16ZM8.512 4C8.67359 3.99999 8.83352 4.03624 8.98219 4.10658C9.13086 4.17692 9.26522 4.27989 9.3772 4.40933L9.4492 4.50067L10.288 5.66667H14.8C15.1027 5.66656 15.3943 5.7936 15.6163 6.02233C15.8383 6.25106 15.9743 6.56456 15.997 6.9L16 7V8H4V5.33333C3.9999 4.99695 4.11424 4.67296 4.3201 4.4263C4.52595 4.17965 4.80811 4.02856 5.11 4.00333L5.2 4H8.512Z" fill="#363F54"/>
</svg>
