<svg width="31" height="16" viewBox="0 0 31 16" fill="none" xmlns="http://www.w3.org/2000/svg">
<path d="M2 13.5938C2 13.7678 2.06914 13.9347 2.19221 14.0578C2.31528 14.1809 2.4822 14.25 2.65625 14.25H13.5938C13.7678 14.25 13.9347 14.1809 14.0578 14.0578C14.1809 13.9347 14.25 13.7678 14.25 13.5938V5.9375H2V13.5938ZM10.75 6.92188C10.75 6.89287 10.7615 6.86505 10.782 6.84453C10.8025 6.82402 10.8304 6.8125 10.8594 6.8125H11.9531C11.9821 6.8125 12.01 6.82402 12.0305 6.84453C12.051 6.86505 12.0625 6.89287 12.0625 6.92188V8.01562C12.0625 8.04463 12.051 8.07245 12.0305 8.09297C12.01 8.11348 11.9821 8.125 11.9531 8.125H10.8594C10.8304 8.125 10.8025 8.11348 10.782 8.09297C10.7615 8.07245 10.75 8.04463 10.75 8.01562V6.92188ZM10.75 9.10938C10.75 9.08037 10.7615 9.05255 10.782 9.03203C10.8025 9.01152 10.8304 9 10.8594 9H11.9531C11.9821 9 12.01 9.01152 12.0305 9.03203C12.051 9.05255 12.0625 9.08037 12.0625 9.10938V10.2031C12.0625 10.2321 12.051 10.26 12.0305 10.2805C12.01 10.301 11.9821 10.3125 11.9531 10.3125H10.8594C10.8304 10.3125 10.8025 10.301 10.782 10.2805C10.7615 10.26 10.75 10.2321 10.75 10.2031V9.10938ZM8.5625 6.92188C8.5625 6.89287 8.57402 6.86505 8.59453 6.84453C8.61505 6.82402 8.64287 6.8125 8.67188 6.8125H9.76562C9.79463 6.8125 9.82245 6.82402 9.84297 6.84453C9.86348 6.86505 9.875 6.89287 9.875 6.92188V8.01562C9.875 8.04463 9.86348 8.07245 9.84297 8.09297C9.82245 8.11348 9.79463 8.125 9.76562 8.125H8.67188C8.64287 8.125 8.61505 8.11348 8.59453 8.09297C8.57402 8.07245 8.5625 8.04463 8.5625 8.01562V6.92188ZM8.5625 9.10938C8.5625 9.08037 8.57402 9.05255 8.59453 9.03203C8.61505 9.01152 8.64287 9 8.67188 9H9.76562C9.79463 9 9.82245 9.01152 9.84297 9.03203C9.86348 9.05255 9.875 9.08037 9.875 9.10938V10.2031C9.875 10.2321 9.86348 10.26 9.84297 10.2805C9.82245 10.301 9.79463 10.3125 9.76562 10.3125H8.67188C8.64287 10.3125 8.61505 10.301 8.59453 10.2805C8.57402 10.26 8.5625 10.2321 8.5625 10.2031V9.10938ZM8.5625 11.2969C8.5625 11.2679 8.57402 11.24 8.59453 11.2195C8.61505 11.199 8.64287 11.1875 8.67188 11.1875H9.76562C9.79463 11.1875 9.82245 11.199 9.84297 11.2195C9.86348 11.24 9.875 11.2679 9.875 11.2969V12.3906C9.875 12.4196 9.86348 12.4475 9.84297 12.468C9.82245 12.4885 9.79463 12.5 9.76562 12.5H8.67188C8.64287 12.5 8.61505 12.4885 8.59453 12.468C8.57402 12.4475 8.5625 12.4196 8.5625 12.3906V11.2969ZM6.375 9.10938C6.375 9.08037 6.38652 9.05255 6.40703 9.03203C6.42755 9.01152 6.45537 9 6.48438 9H7.57812C7.60713 9 7.63495 9.01152 7.65547 9.03203C7.67598 9.05255 7.6875 9.08037 7.6875 9.10938V10.2031C7.6875 10.2321 7.67598 10.26 7.65547 10.2805C7.63495 10.301 7.60713 10.3125 7.57812 10.3125H6.48438C6.45537 10.3125 6.42755 10.301 6.40703 10.2805C6.38652 10.26 6.375 10.2321 6.375 10.2031V9.10938ZM6.375 11.2969C6.375 11.2679 6.38652 11.24 6.40703 11.2195C6.42755 11.199 6.45537 11.1875 6.48438 11.1875H7.57812C7.60713 11.1875 7.63495 11.199 7.65547 11.2195C7.67598 11.24 7.6875 11.2679 7.6875 11.2969V12.3906C7.6875 12.4196 7.67598 12.4475 7.65547 12.468C7.63495 12.4885 7.60713 12.5 7.57812 12.5H6.48438C6.45537 12.5 6.42755 12.4885 6.40703 12.468C6.38652 12.4475 6.375 12.4196 6.375 12.3906V11.2969ZM4.1875 9.10938C4.1875 9.08037 4.19902 9.05255 4.21954 9.03203C4.24005 9.01152 4.26787 9 4.29688 9H5.39062C5.41963 9 5.44745 9.01152 5.46796 9.03203C5.48848 9.05255 5.5 9.08037 5.5 9.10938V10.2031C5.5 10.2321 5.48848 10.26 5.46796 10.2805C5.44745 10.301 5.41963 10.3125 5.39062 10.3125H4.29688C4.26787 10.3125 4.24005 10.301 4.21954 10.2805C4.19902 10.26 4.1875 10.2321 4.1875 10.2031V9.10938ZM4.1875 11.2969C4.1875 11.2679 4.19902 11.24 4.21954 11.2195C4.24005 11.199 4.26787 11.1875 4.29688 11.1875H5.39062C5.41963 11.1875 5.44745 11.199 5.46796 11.2195C5.48848 11.24 5.5 11.2679 5.5 11.2969V12.3906C5.5 12.4196 5.48848 12.4475 5.46796 12.468C5.44745 12.4885 5.41963 12.5 5.39062 12.5H4.29688C4.26787 12.5 4.24005 12.4885 4.21954 12.468C4.19902 12.4475 4.1875 12.4196 4.1875 12.3906V11.2969ZM13.5938 2.875H12.0647V1H9.75219V2.875H6.49781V1H4.18531V2.875H2.65625C2.5704 2.87428 2.48525 2.89055 2.40572 2.92288C2.32618 2.95521 2.25383 3.00296 2.19283 3.06338C2.13183 3.12379 2.08339 3.19568 2.05029 3.2749C2.0172 3.35412 2.00011 3.43911 2 3.52496V5.0625H14.25V3.52496C14.2499 3.43911 14.2328 3.35412 14.1997 3.2749C14.1666 3.19568 14.1182 3.12379 14.0572 3.06338C13.9962 3.00296 13.9238 2.95521 13.8443 2.92288C13.7647 2.89055 13.6796 2.87428 13.5938 2.875Z" fill="#282D3B"/>
</svg>
