<svg width="32" height="32" viewBox="0 0 32 32" fill="none" xmlns="http://www.w3.org/2000/svg">
<path d="M19.0283 8.6625L17.6252 10.0656L21.9345 14.375L23.3377 12.9719C23.7627 12.55 24.0002 11.975 24.0002 11.375C24.0002 10.775 23.7627 10.2 23.3377 9.77813L22.222 8.6625C21.8002 8.2375 21.2252 8 20.6252 8C20.0252 8 19.4502 8.2375 19.0283 8.6625ZM16.5658 11.125L9.84078 17.8469C9.50641 18.1813 9.26266 18.6 9.13453 19.0563L8.02828 23.05C7.95641 23.3094 8.02828 23.5906 8.22203 23.7813C8.41578 23.9719 8.69391 24.0469 8.95328 23.975L12.947 22.8656C13.4033 22.7375 13.8189 22.4969 14.1564 22.1594L20.8752 15.4344L16.5658 11.125Z" fill="#363F54"/>
</svg>
