<svg width="30" height="30" viewBox="0 0 30 30" fill="none" xmlns="http://www.w3.org/2000/svg">
    <defs>
        <mask id="punch-hole-mask">
            <rect x="0" y="0" width="30" height="30" fill="white" />
            <path d="M11.5 14.5V21.5" stroke="black" stroke-width="1.2" stroke-linecap="round"/>
            <path d="M13.8999 14.5V21.5" stroke="black" stroke-width="1.2" stroke-linecap="round"/>
            <path d="M16.2998 14.5V21.5" stroke="black" stroke-width="1.2" stroke-linecap="round"/>
            <path d="M18.7002 14.5V21.5" stroke="black" stroke-width="1.2" stroke-linecap="round"/>
        </mask>

        <clipPath id="clip0_781_1699">
            <rect width="18" height="18" fill="white" transform="translate(6 6)"/>
        </clipPath>

        <mask id="path-4-outside-1_781_1699" maskUnits="userSpaceOnUse" x="11.2002" y="6.57143" width="8" height="4" fill="black">
            <rect fill="white" x="11.2002" y="6.57143" width="8" height="4"/>
            <path d="M13.2239 10.2857V9.42857C13.2239 9 13.0759 8.57143 13.5199 8.57143H16.4805C16.9245 8.57143 16.7765 9 16.7765 9.42857V10.2857"/>
        </mask>
    </defs>

    <g clip-path="url(#clip0_781_1699)">
        <g mask="url(#punch-hole-mask)">
            <path d="M20.4001 13.7143V21.9643C20.4001 22.5536 19.6287 23.1429 18.8572 23.1429H11.143C10.3715 23.1429 9.6001 22.5536 9.6001 21.9643V13.7143" fill="#363F54"/>
            <path d="M20.4001 13.7143V21.9643C20.4001 22.5536 19.6287 23.1429 18.8572 23.1429H11.143C10.3715 23.1429 9.6001 22.5536 9.6001 21.9643V13.7143H20.4001Z" stroke="#363F54" stroke-width="2.5" stroke-linecap="round" stroke-linejoin="round"/>
        </g>

        <path d="M13.2239 10.2857H15.2239V9.42857H13.2239H11.2239V10.2857H13.2239ZM13.2239 9.42857H15.2239C15.2239 9.23238 15.2065 9.02822 15.2029 8.97601C15.195 8.86128 15.2069 8.94098 15.1923 9.06804C15.1771 9.19942 15.1044 9.66999 14.6752 10.0842C14.2218 10.5217 13.7145 10.5714 13.5199 10.5714V8.57143V6.57143C13.1033 6.57143 12.448 6.67469 11.8975 7.20597C11.3711 7.71393 11.2521 8.31843 11.2185 8.61053C11.1854 8.8983 11.2065 9.1655 11.2124 9.25167C11.2176 9.32686 11.2194 9.34647 11.222 9.38909C11.2239 9.42071 11.2239 9.4305 11.2239 9.42857H13.2239ZM13.5199 8.57143V10.5714H16.4805V8.57143V6.57143H13.5199V8.57143ZM16.4805 8.57143V10.5714C16.2859 10.5714 15.7786 10.5217 15.3252 10.0842C14.896 9.66999 14.8233 9.19942 14.8081 9.06804C14.7935 8.94098 14.8054 8.86128 14.7975 8.97601C14.7938 9.02822 14.7765 9.23238 14.7765 9.42857H16.7765H18.7765C18.7765 9.4305 18.7765 9.42071 18.7784 9.38909C18.7809 9.34647 18.7828 9.32686 18.7879 9.25167C18.7939 9.1655 18.815 8.8983 18.7819 8.61053C18.7483 8.31843 18.6293 7.71393 18.1029 7.20597C17.5524 6.67469 16.8971 6.57143 16.4805 6.57143V8.57143ZM16.7765 9.42857H14.7765V10.2857H16.7765H18.7765V9.42857H16.7765Z" fill="#363F54" mask="url(#path-4-outside-1_781_1699)"/>
        <path d="M7.7998 10.4286C7.7998 9.87629 8.24752 9.42857 8.7998 9.42857H21.1998C21.7521 9.42857 22.1998 9.87629 22.1998 10.4286V12H7.7998V10.4286Z" fill="#363F54"/>
    </g>
</svg>
