<svg width="28" height="28" viewBox="0 0 28 28" fill="none" xmlns="http://www.w3.org/2000/svg">
<path d="M16.2437 9.2437C16.1666 9.16645 16.075 9.10516 15.9742 9.06334C15.8734 9.02153 15.7653 9 15.6562 9C15.5471 9 15.439 9.02153 15.3382 9.06334C15.2374 9.10516 15.1458 9.16645 15.0687 9.2437L11.2437 13.0687C11.1665 13.1458 11.1052 13.2374 11.0633 13.3382C11.0215 13.439 11 13.5471 11 13.6562C11 13.7653 11.0215 13.8734 11.0633 13.9742C11.1052 14.075 11.1665 14.1666 11.2437 14.2437L15.0687 18.0687C15.1459 18.1459 15.2374 18.2071 15.3383 18.2488C15.4391 18.2906 15.5471 18.3121 15.6562 18.3121C15.7653 18.3121 15.8734 18.2906 15.9742 18.2488C16.075 18.2071 16.1666 18.1459 16.2437 18.0687C16.3209 17.9916 16.3821 17.9 16.4238 17.7992C16.4656 17.6984 16.4871 17.5903 16.4871 17.4812C16.4871 17.3721 16.4656 17.2641 16.4238 17.1633C16.3821 17.0624 16.3209 16.9709 16.2437 16.8937L13.0104 13.652L16.2437 10.4187C16.5687 10.0937 16.5604 9.56037 16.2437 9.2437Z" fill="#7E8AA8"/>
</svg>
