<svg width="20" height="21" viewBox="0 0 20 21" fill="none" xmlns="http://www.w3.org/2000/svg">
<path d="M3.26731 17.7368C3.37586 17.0438 3.80717 16.1452 4.30938 15.643C4.9345 15.0179 5.78235 14.6667 6.6664 14.6667H13.3331C14.2171 14.6667 15.065 15.0179 15.6901 15.643C16.026 15.9789 16.2828 16.3791 16.4485 16.8146C16.53 17.0288 16.6306 17.5492 16.6667 17.777M4.16667 3H15.8333C16.7538 3 17.5 3.74619 17.5 4.66667V16.3333C17.5 17.2538 16.7538 18 15.8333 18H4.16667C3.24619 18 2.5 17.2538 2.5 16.3333V4.66667C2.5 3.74619 3.24619 3 4.16667 3ZM13.3333 8.83333C13.3333 10.6743 11.8409 12.1667 10 12.1667C8.15905 12.1667 6.66667 10.6743 6.66667 8.83333C6.66667 6.99238 8.15905 5.5 10 5.5C11.8409 5.5 13.3333 6.99238 13.3333 8.83333Z" stroke="white" stroke-width="1.5" stroke-linecap="round" stroke-linejoin="round"/>
</svg>
