<svg width="20" height="21" viewBox="0 0 20 21" fill="none" xmlns="http://www.w3.org/2000/svg">
<path d="M2.5 14.7474C2.08579 14.7474 1.75 15.0832 1.75 15.4974C1.75 15.9116 2.08579 16.2474 2.5 16.2474V15.4974V14.7474ZM17.5 16.2474C17.9142 16.2474 18.25 15.9116 18.25 15.4974C18.25 15.0832 17.9142 14.7474 17.5 14.7474V15.4974V16.2474ZM12.09 18.3737C12.2979 18.0154 12.1759 17.5565 11.8176 17.3486C11.4593 17.1408 11.0004 17.2628 10.7925 17.6211L11.4413 17.9974L12.09 18.3737ZM9.20669 17.6211C8.99885 17.2628 8.53991 17.1408 8.18161 17.3486C7.82332 17.5565 7.70135 18.0154 7.90919 18.3737L8.55794 17.9974L9.20669 17.6211ZM2.5 15.4974V16.2474H17.5V15.4974V14.7474H2.5V15.4974ZM11.4413 17.9974L10.7925 17.6211C10.7119 17.76 10.5963 17.8753 10.4571 17.9554L10.8315 18.6053L11.2058 19.2552C11.5727 19.0439 11.8776 18.7399 12.09 18.3737L11.4413 17.9974ZM10.8315 18.6053L10.4571 17.9554C10.318 18.0356 10.1602 18.0778 9.99961 18.0778V18.8278V19.5778C10.423 19.5778 10.8389 19.4666 11.2058 19.2552L10.8315 18.6053ZM9.99961 18.8278V18.0778C9.83902 18.0778 9.68125 18.0356 9.54209 17.9554L9.16775 18.6053L8.79342 19.2552C9.16029 19.4666 9.57623 19.5778 9.99961 19.5778V18.8278ZM9.16775 18.6053L9.54209 17.9554C9.40293 17.8753 9.28727 17.76 9.20669 17.6211L8.55794 17.9974L7.90919 18.3737C8.12163 18.7399 8.42655 19.0439 8.79342 19.2552L9.16775 18.6053ZM4.16667 7.9974H4.91667C4.91667 5.18995 7.19255 2.91406 10 2.91406V2.16406V1.41406C6.36413 1.41406 3.41667 4.36152 3.41667 7.9974H4.16667ZM10 2.16406V2.91406C12.8074 2.91406 15.0833 5.18995 15.0833 7.9974H15.8333H16.5833C16.5833 4.36152 13.6359 1.41406 10 1.41406V2.16406ZM4.16667 7.9974H3.41667V15.4974H4.16667H4.91667V7.9974H4.16667ZM15.8333 7.9974H15.0833V15.4974H15.8333H16.5833V7.9974H15.8333Z" fill="white"/>
</svg>
