<svg width="28" height="28" viewBox="0 0 28 28" fill="none" xmlns="http://www.w3.org/2000/svg">
<path d="M11.2434 9.2437C11.3204 9.16645 11.412 9.10516 11.5128 9.06334C11.6136 9.02153 11.7217 9 11.8309 9C11.94 9 12.0481 9.02153 12.1489 9.06334C12.2497 9.10516 12.3413 9.16645 12.4184 9.2437L16.2434 13.0687C16.3206 13.1458 16.3819 13.2374 16.4237 13.3382C16.4655 13.439 16.4871 13.5471 16.4871 13.6562C16.4871 13.7653 16.4655 13.8734 16.4237 13.9742C16.3819 14.075 16.3206 14.1666 16.2434 14.2437L12.4184 18.0687C12.3412 18.1459 12.2496 18.2071 12.1488 18.2488C12.048 18.2906 11.94 18.3121 11.8309 18.3121C11.7217 18.3121 11.6137 18.2906 11.5129 18.2488C11.4121 18.2071 11.3205 18.1459 11.2434 18.0687C11.1662 17.9916 11.105 17.9 11.0632 17.7992C11.0215 17.6984 11 17.5903 11 17.4812C11 17.3721 11.0215 17.2641 11.0632 17.1633C11.105 17.0624 11.1662 16.9709 11.2434 16.8937L14.4767 13.652L11.2434 10.4187C10.9184 10.0937 10.9267 9.56037 11.2434 9.2437Z" fill="#7E8AA8"/>
</svg>
