<svg width="20" height="21" viewBox="0 0 20 21" fill="none" xmlns="http://www.w3.org/2000/svg">
<path d="M6.41645 4.1401L6.4859 3.39332L6.4859 3.39332L6.41645 4.1401ZM8.03677 3.46894L7.45961 2.99L7.45961 2.99L8.03677 3.46894ZM3.56506 6.11049L2.81828 6.17994L2.81828 6.17994L3.56506 6.11049ZM5.61041 4.06514L5.54096 4.81192L5.54096 4.81192L5.61041 4.06514ZM2.96886 8.53685L2.48992 7.95969L2.48992 7.95969L2.96886 8.53685ZM3.64002 6.91653L4.3868 6.84708L4.3868 6.84708L3.64002 6.91653ZM2.3459 11.9464L1.86696 12.5235L1.86696 12.5235L2.3459 11.9464ZM2.3459 9.0538L2.82484 9.63096L2.82484 9.63096L2.3459 9.0538ZM3.64002 14.0836L2.89324 14.0142L2.89324 14.0142L3.64002 14.0836ZM2.96886 12.4633L3.4478 11.8862L3.4478 11.8862L2.96886 12.4633ZM5.61041 16.935L5.54096 16.1882L5.54096 16.1882L5.61041 16.935ZM3.56506 14.8897L4.31184 14.9591L4.31184 14.9591L3.56506 14.8897ZM8.03677 17.5312L8.61393 17.0523L8.61393 17.0523L8.03677 17.5312ZM6.41645 16.8601L6.4859 17.6068L6.4859 17.6068L6.41645 16.8601ZM11.4463 18.1542L12.0234 18.6331L12.0234 18.6331L11.4463 18.1542ZM8.55372 18.1542L7.97656 18.6331L7.97656 18.6331L8.55372 18.1542ZM13.5836 16.8601L13.5141 17.6068L13.5141 17.6068L13.5836 16.8601ZM11.9632 17.5312L11.3861 17.0523L11.3861 17.0523L11.9632 17.5312ZM16.4349 14.8897L15.6882 14.9591L15.6882 14.9591L16.4349 14.8897ZM14.3896 16.935L14.459 16.1882L14.459 16.1882L14.3896 16.935ZM17.0311 12.4633L16.5522 11.8862L16.5522 11.8862L17.0311 12.4633ZM16.36 14.0836L17.1068 14.0142L17.1068 14.0142L16.36 14.0836ZM17.6541 9.0538L18.133 8.47664L18.133 8.47664L17.6541 9.0538ZM17.6541 11.9464L18.133 12.5235L18.133 12.5235L17.6541 11.9464ZM16.36 6.91653L17.1068 6.98598L17.1068 6.98598L16.36 6.91653ZM17.0311 8.53685L16.5522 9.11401L16.5522 9.11401L17.0311 8.53685ZM14.3896 4.06514L14.3201 3.31836L14.3896 4.06514ZM16.4349 6.11049L15.6882 6.04104L15.6882 6.04104L16.4349 6.11049ZM11.9632 3.46894L12.5404 2.99L12.5404 2.99L11.9632 3.46894ZM13.5836 4.1401L13.653 4.88688L13.653 4.88688L13.5836 4.1401ZM11.4463 2.84598L10.8691 3.32492L10.8691 3.32492L11.4463 2.84598ZM8.55372 2.84598L9.13088 3.32492L9.13088 3.32492L8.55372 2.84598ZM11.4463 2.84598L10.8691 3.32492L11.3861 3.94788L11.9632 3.46894L12.5404 2.99L12.0234 2.36704L11.4463 2.84598ZM13.5836 4.1401L13.653 4.88688L14.459 4.81192L14.3896 4.06514L14.3201 3.31836L13.5141 3.39332L13.5836 4.1401ZM16.4349 6.11049L15.6882 6.04104L15.6132 6.84708L16.36 6.91653L17.1068 6.98598L17.1817 6.17994L16.4349 6.11049ZM17.0311 8.53685L16.5522 9.11401L17.1752 9.63096L17.6541 9.0538L18.133 8.47664L17.5101 7.95969L17.0311 8.53685ZM17.6541 11.9464L17.1752 11.3692L16.5522 11.8862L17.0311 12.4633L17.5101 13.0405L18.133 12.5235L17.6541 11.9464ZM16.36 14.0836L15.6132 14.1531L15.6882 14.9591L16.4349 14.8897L17.1817 14.8202L17.1068 14.0142L16.36 14.0836ZM14.3896 16.935L14.459 16.1882L13.653 16.1133L13.5836 16.8601L13.5141 17.6068L14.3201 17.6818L14.3896 16.935ZM11.9632 17.5312L11.3861 17.0523L10.8691 17.6752L11.4463 18.1542L12.0234 18.6331L12.5404 18.0102L11.9632 17.5312ZM8.55372 18.1542L9.13088 17.6752L8.61393 17.0523L8.03677 17.5312L7.45961 18.0102L7.97656 18.6331L8.55372 18.1542ZM6.41645 16.8601L6.347 16.1133L5.54096 16.1882L5.61041 16.935L5.67986 17.6818L6.4859 17.6068L6.41645 16.8601ZM3.56506 14.8897L4.31184 14.9591L4.3868 14.1531L3.64002 14.0836L2.89324 14.0142L2.81828 14.8202L3.56506 14.8897ZM2.96886 12.4633L3.4478 11.8862L2.82484 11.3692L2.3459 11.9464L1.86696 12.5235L2.48992 13.0405L2.96886 12.4633ZM2.3459 9.0538L2.82484 9.63096L3.4478 9.11401L2.96886 8.53685L2.48992 7.95969L1.86696 8.47664L2.3459 9.0538ZM3.64002 6.91653L4.3868 6.84708L4.31184 6.04104L3.56506 6.11049L2.81828 6.17994L2.89324 6.98598L3.64002 6.91653ZM5.61041 4.06514L5.54096 4.81192L6.347 4.88688L6.41645 4.1401L6.4859 3.39332L5.67986 3.31836L5.61041 4.06514ZM8.03677 3.46894L8.61393 3.94788L9.13088 3.32492L8.55372 2.84598L7.97656 2.36704L7.45961 2.99L8.03677 3.46894ZM6.41645 4.1401L6.347 4.88688C7.21131 4.96726 8.05961 4.61588 8.61393 3.94788L8.03677 3.46894L7.45961 2.99C7.22151 3.27692 6.85715 3.42785 6.4859 3.39332L6.41645 4.1401ZM3.56506 6.11049L4.31184 6.04104C4.24635 5.33687 4.83679 4.74643 5.54096 4.81192L5.61041 4.06514L5.67986 3.31836C4.04045 3.16589 2.66581 4.54052 2.81828 6.17994L3.56506 6.11049ZM2.96886 8.53685L3.4478 9.11401C4.11581 8.55969 4.46718 7.71139 4.3868 6.84708L3.64002 6.91653L2.89324 6.98598C2.92777 7.35723 2.77684 7.72159 2.48992 7.95969L2.96886 8.53685ZM2.3459 11.9464L2.82484 11.3692C2.28061 10.9176 2.28061 10.0826 2.82484 9.63096L2.3459 9.0538L1.86696 8.47664C0.599904 9.52807 0.599904 11.4721 1.86696 12.5235L2.3459 11.9464ZM3.64002 14.0836L4.3868 14.1531C4.46718 13.2888 4.11581 12.4405 3.4478 11.8862L2.96886 12.4633L2.48992 13.0405C2.77684 13.2786 2.92777 13.6429 2.89324 14.0142L3.64002 14.0836ZM5.61041 16.935L5.54096 16.1882C4.83679 16.2537 4.24635 15.6633 4.31184 14.9591L3.56506 14.8897L2.81828 14.8202C2.66581 16.4596 4.04044 17.8343 5.67986 17.6818L5.61041 16.935ZM8.03677 17.5312L8.61393 17.0523C8.05961 16.3843 7.21131 16.0329 6.347 16.1133L6.41645 16.8601L6.4859 17.6068C6.85715 17.5723 7.22151 17.7232 7.45961 18.0102L8.03677 17.5312ZM11.4463 18.1542L10.8691 17.6752C10.4175 18.2195 9.5825 18.2195 9.13088 17.6752L8.55372 18.1542L7.97656 18.6331C9.02799 19.9002 10.972 19.9002 12.0234 18.6331L11.4463 18.1542ZM13.5836 16.8601L13.653 16.1133C12.7887 16.0329 11.9404 16.3843 11.3861 17.0523L11.9632 17.5312L12.5404 18.0102C12.7785 17.7232 13.1429 17.5723 13.5141 17.6068L13.5836 16.8601ZM16.4349 14.8897L15.6882 14.9591C15.7537 15.6633 15.1632 16.2537 14.459 16.1882L14.3896 16.935L14.3201 17.6818C15.9596 17.8343 17.3342 16.4596 17.1817 14.8202L16.4349 14.8897ZM17.0311 12.4633L16.5522 11.8862C15.8842 12.4405 15.5328 13.2888 15.6132 14.1531L16.36 14.0836L17.1068 14.0142C17.0722 13.6429 17.2232 13.2786 17.5101 13.0405L17.0311 12.4633ZM17.6541 9.0538L17.1752 9.63096C17.7194 10.0826 17.7194 10.9176 17.1752 11.3692L17.6541 11.9464L18.133 12.5235C19.4001 11.4721 19.4001 9.52807 18.133 8.47664L17.6541 9.0538ZM16.36 6.91653L15.6132 6.84708C15.5328 7.71139 15.8842 8.55969 16.5522 9.11401L17.0311 8.53685L17.5101 7.95969C17.2232 7.72159 17.0722 7.35723 17.1068 6.98598L16.36 6.91653ZM14.3896 4.06514L14.459 4.81192C15.1632 4.74643 15.7537 5.33687 15.6882 6.04104L16.4349 6.11049L17.1817 6.17994C17.3342 4.54053 15.9596 3.16589 14.3201 3.31836L14.3896 4.06514ZM11.9632 3.46894L11.3861 3.94788C11.9404 4.61589 12.7887 4.96726 13.653 4.88688L13.5836 4.1401L13.5141 3.39332C13.1429 3.42785 12.7785 3.27692 12.5404 2.99L11.9632 3.46894ZM11.4463 2.84598L12.0234 2.36704C10.972 1.09998 9.02799 1.09998 7.97656 2.36704L8.55372 2.84598L9.13088 3.32492C9.5825 2.78069 10.4175 2.78069 10.8691 3.32492L11.4463 2.84598ZM12.5 10.5001H11.75C11.75 11.4666 10.9665 12.2501 10 12.2501V13.0001V13.7501C11.7949 13.7501 13.25 12.295 13.25 10.5001H12.5ZM10 13.0001V12.2501C9.0335 12.2501 8.25 11.4666 8.25 10.5001H7.5H6.75C6.75 12.295 8.20508 13.7501 10 13.7501V13.0001ZM7.5 10.5001H8.25C8.25 9.53358 9.0335 8.75008 10 8.75008V8.00008V7.25008C8.20508 7.25008 6.75 8.70516 6.75 10.5001H7.5ZM10 8.00008V8.75008C10.9665 8.75008 11.75 9.53358 11.75 10.5001H12.5H13.25C13.25 8.70516 11.7949 7.25008 10 7.25008V8.00008Z" fill="white"/>
</svg>
