<svg width="16" height="16" viewBox="0 0 16 16" fill="none" xmlns="http://www.w3.org/2000/svg">
<rect width="16" height="16" rx="8" fill="#636779"/>
<path d="M7.99983 8.47183L4.50249 11.9692C4.44027 12.0314 4.36383 12.0647 4.27316 12.0692C4.18249 12.0736 4.10161 12.0403 4.03049 11.9692C3.95938 11.8981 3.92383 11.8194 3.92383 11.7332C3.92383 11.6469 3.95938 11.5683 4.03049 11.4972L7.52783 7.99983L4.03049 4.50249C3.96827 4.44027 3.93494 4.36383 3.93049 4.27316C3.92605 4.18249 3.95938 4.10161 4.03049 4.03049C4.10161 3.95938 4.18027 3.92383 4.26649 3.92383C4.35272 3.92383 4.43138 3.95938 4.50249 4.03049L7.99983 7.52783L11.4972 4.03049C11.5594 3.96827 11.6361 3.93494 11.7272 3.93049C11.8174 3.92605 11.8981 3.95938 11.9692 4.03049C12.0403 4.10161 12.0758 4.18027 12.0758 4.26649C12.0758 4.35272 12.0403 4.43138 11.9692 4.50249L8.47183 7.99983L11.9692 11.4972C12.0314 11.5594 12.0647 11.6361 12.0692 11.7272C12.0736 11.8174 12.0403 11.8981 11.9692 11.9692C11.8981 12.0403 11.8194 12.0758 11.7332 12.0758C11.6469 12.0758 11.5683 12.0403 11.4972 11.9692L7.99983 8.47183Z" fill="white"/>
</svg>
