<svg width="20" height="21" viewBox="0 0 20 21" fill="none" xmlns="http://www.w3.org/2000/svg">
<path d="M13.3333 3.83341H15C15.442 3.83341 15.8659 4.00901 16.1785 4.32157C16.4911 4.63413 16.6667 5.05805 16.6667 5.50008V17.1667C16.6667 17.6088 16.4911 18.0327 16.1785 18.3453C15.8659 18.6578 15.442 18.8334 15 18.8334H5C4.55797 18.8334 4.13405 18.6578 3.82149 18.3453C3.50893 18.0327 3.33333 17.6088 3.33333 17.1667V5.50008C3.33333 5.05805 3.50893 4.63413 3.82149 4.32157C4.13405 4.00901 4.55797 3.83341 5 3.83341H6.66667M13.3333 10.5001H6.66667M10 13.8334H6.66667M7.5 2.16675H12.5C12.9602 2.16675 13.3333 2.53984 13.3333 3.00008V4.66675C13.3333 5.12699 12.9602 5.50008 12.5 5.50008H7.5C7.03976 5.50008 6.66667 5.12699 6.66667 4.66675V3.00008C6.66667 2.53984 7.03976 2.16675 7.5 2.16675Z" stroke="white" stroke-width="1.5" stroke-linecap="round" stroke-linejoin="round"/>
</svg>
