<svg width="36" height="36" viewBox="0 0 36 36" fill="none" xmlns="http://www.w3.org/2000/svg">
<path d="M16.39 24.9201C16.2583 24.9209 16.1279 24.8956 16.006 24.8459C15.8842 24.7961 15.7734 24.7228 15.68 24.6301C15.4937 24.4427 15.3892 24.1893 15.3892 23.9251C15.3892 23.6609 15.4937 23.4075 15.68 23.2201L20.89 18.0001L15.68 12.7801C15.5161 12.5888 15.4305 12.3427 15.4402 12.091C15.45 11.8394 15.5543 11.6006 15.7324 11.4225C15.9105 11.2444 16.1492 11.1401 16.4009 11.1304C16.6526 11.1207 16.8987 11.2063 17.09 11.3701L23 17.2901C23.0926 17.3835 23.166 17.4944 23.2157 17.6162C23.2655 17.738 23.2907 17.8685 23.29 18.0001C23.2863 18.2649 23.1827 18.5185 23 18.7101L17.07 24.6301C16.8886 24.8101 16.6453 24.9138 16.39 24.9201Z" fill="#636779"/>
</svg>
