<svg width="20" height="21" viewBox="0 0 20 21" fill="none" xmlns="http://www.w3.org/2000/svg">
<path d="M1.66797 18.021H0.917969H1.66797ZM1.66797 13.8071H2.41797H1.66797ZM12.5013 15.4974V16.2474H12.8296L13.0523 16.0062L12.5013 15.4974ZM4.2513 15.4264C4.2513 15.8407 4.58709 16.1764 5.0013 16.1764C5.41552 16.1764 5.7513 15.8407 5.7513 15.4264H5.0013H4.2513ZM18.0037 13.5381L18.5662 14.0342L18.5662 14.0342L18.0037 13.5381ZM13.8335 18.2652L13.2711 17.7691L13.2711 17.7691L13.8335 18.2652ZM15.9257 11.7895L16.4767 12.2984L16.483 12.2914L15.9257 11.7895ZM11.6014 4.45837L12.3343 4.29908L12.3343 4.29908L11.6014 4.45837ZM9.16797 14.7474C8.75376 14.7474 8.41797 15.0832 8.41797 15.4974C8.41797 15.9116 8.75376 16.2474 9.16797 16.2474V15.4974V14.7474ZM2.5013 12.9974V13.7474H4.16797V12.9974V12.2474H2.5013V12.9974ZM5.0013 13.8071H4.2513V18.021H5.0013H5.7513V13.8071H5.0013ZM4.16797 18.8307V18.0807H2.5013V18.8307V19.5807H4.16797V18.8307ZM1.66797 18.021L2.41797 18.021L2.41797 13.8071L1.66797 13.8071L0.917969 13.8071L0.917969 18.021L1.66797 18.021ZM2.5013 18.8307V18.0807C2.4711 18.0807 2.44895 18.0695 2.43469 18.0557C2.42081 18.0422 2.41797 18.0305 2.41797 18.021H1.66797H0.917969C0.917969 18.9026 1.64735 19.5807 2.5013 19.5807V18.8307ZM5.0013 18.021H4.2513C4.2513 18.0305 4.24846 18.0422 4.23458 18.0557C4.22032 18.0695 4.19817 18.0807 4.16797 18.0807V18.8307V19.5807C5.02192 19.5807 5.7513 18.9026 5.7513 18.021H5.0013ZM4.16797 12.9974V13.7474C4.19817 13.7474 4.22032 13.7586 4.23458 13.7725C4.24846 13.7859 4.2513 13.7976 4.2513 13.8071H5.0013H5.7513C5.7513 12.9255 5.02192 12.2474 4.16797 12.2474V12.9974ZM2.5013 12.9974V12.2474C1.64735 12.2474 0.917969 12.9255 0.917969 13.8071H1.66797H2.41797C2.41797 13.7976 2.42081 13.7859 2.43469 13.7725C2.44895 13.7586 2.4711 13.7474 2.5013 13.7474V12.9974ZM6.66797 12.9974V13.7474H10.8346V12.9974V12.2474H6.66797V12.9974ZM12.5013 14.5222H11.7513V15.4974H12.5013H13.2513V14.5222H12.5013ZM5.0013 15.4264H5.7513V14.6168H5.0013H4.2513V15.4264H5.0013ZM18.0037 13.5381L17.4413 13.0419L13.2711 17.7691L13.8335 18.2652L14.3959 18.7614L18.5662 14.0342L18.0037 13.5381ZM15.9257 11.7895L16.483 12.2914C16.8898 11.8396 17.5846 12.169 17.5846 12.6689H18.3346H19.0846C19.0846 10.7026 16.6331 9.88322 15.3684 11.2876L15.9257 11.7895ZM13.8335 18.2652L13.2711 17.7691C13.0995 17.9636 12.8435 18.0807 12.5681 18.0807V18.8307V19.5807C13.2658 19.5807 13.9342 19.2847 14.3959 18.7614L13.8335 18.2652ZM18.0037 13.5381L18.5662 14.0342C18.8989 13.657 19.0846 13.1729 19.0846 12.6689H18.3346H17.5846C17.5846 12.8025 17.5356 12.935 17.4413 13.0419L18.0037 13.5381ZM10.8346 12.9974V13.7474C11.4228 13.7474 11.7513 14.1194 11.7513 14.5222H12.5013H13.2513C13.2513 13.1362 12.0874 12.2474 10.8346 12.2474V12.9974ZM6.66797 12.9974V12.2474C5.35378 12.2474 4.2513 13.288 4.2513 14.6168H5.0013H5.7513C5.7513 14.1568 6.14121 13.7474 6.66797 13.7474V12.9974ZM12.5013 15.4974L13.0523 16.0062L16.4767 12.2983L15.9257 11.7895L15.3747 11.2806L11.9503 14.9886L12.5013 15.4974ZM14.168 7.58073H13.418C13.418 8.77735 12.4479 9.7474 11.2513 9.7474V10.4974V11.2474C13.2763 11.2474 14.918 9.60577 14.918 7.58073H14.168ZM11.2513 10.4974V9.7474C10.0547 9.7474 9.08464 8.77735 9.08464 7.58073H8.33464H7.58464C7.58464 9.60577 9.22626 11.2474 11.2513 11.2474V10.4974ZM8.33464 7.58073H9.08464C9.08464 6.38411 10.0547 5.41406 11.2513 5.41406V4.66406V3.91406C9.22626 3.91406 7.58464 5.55569 7.58464 7.58073H8.33464ZM5.83464 5.08073H6.58464C6.58464 3.88411 7.55469 2.91406 8.7513 2.91406V2.16406V1.41406C6.72626 1.41406 5.08464 3.05569 5.08464 5.08073H5.83464ZM8.7513 2.16406V2.91406C9.78833 2.91406 10.6568 3.64337 10.8685 4.61766L11.6014 4.45837L12.3343 4.29908C11.9758 2.64974 10.5087 1.41406 8.7513 1.41406V2.16406ZM8.35961 7.96413L8.46581 7.22169C7.40625 7.07013 6.58464 6.16143 6.58464 5.08073H5.83464H5.08464C5.08464 6.93875 6.48606 8.45377 8.25341 8.70657L8.35961 7.96413ZM11.6014 4.45837L10.8685 4.61766C10.8808 4.67411 10.8909 4.73142 10.8987 4.78953L11.642 4.69001L12.3854 4.59048C12.3722 4.49212 12.3551 4.39493 12.3343 4.29908L11.6014 4.45837ZM11.2513 4.66406V5.41406C11.3504 5.41406 11.4476 5.42067 11.5425 5.43337L11.642 4.69001L11.7415 3.94664C11.5808 3.92512 11.4172 3.91406 11.2513 3.91406V4.66406ZM11.642 4.69001L11.5425 5.43337C12.6011 5.57511 13.418 6.48314 13.418 7.58073H14.168H14.918C14.918 5.72164 13.5351 4.18676 11.7415 3.94664L11.642 4.69001ZM12.5681 18.8307V18.0807H4.16797V18.8307V19.5807H12.5681V18.8307ZM12.5013 15.4974V14.7474H9.16797V15.4974V16.2474H12.5013V15.4974Z" fill="white"/>
</svg>
