<svg width="60" height="60" viewBox="0 0 60 60" fill="none" xmlns="http://www.w3.org/2000/svg">
<rect width="60" height="60" rx="8" fill="#005296"/>
<path d="M30 35C28.8954 35 28 35.8954 28 37C28 38.1046 28.8954 39 30 39C31.1046 39 32 38.1046 32 37C32 35.8954 31.1046 35 30 35ZM30 35V26.5M23 35C21.8954 35 21 35.8954 21 37C21 38.1046 21.8954 39 23 39C24.1046 39 25 38.1046 25 37C25 35.8954 24.1046 35 23 35ZM23 35V33C23 31.3431 24.3431 30 26 30H34C35.6569 30 37 31.3431 37 33V35M37 35C35.8954 35 35 35.8954 35 37C35 38.1046 35.8954 39 37 39C38.1046 39 39 38.1046 39 37C39 35.8954 38.1046 35 37 35ZM32.6998 23.7C32.6998 25.1912 31.491 26.4 29.9998 26.4C28.5086 26.4 27.2998 25.1912 27.2998 23.7C27.2998 22.2088 28.5086 21 29.9998 21C31.491 21 32.6998 22.2088 32.6998 23.7Z" stroke="white" stroke-width="1.5" stroke-linecap="round" stroke-linejoin="round"/>
</svg>
