<svg width="36" height="36" viewBox="0 0 36 36" fill="none" xmlns="http://www.w3.org/2000/svg">
<path d="M20.5301 24.9201C20.3985 24.9209 20.268 24.8956 20.1462 24.8459C20.0244 24.7961 19.9136 24.7228 19.8201 24.6301L13.8901 18.7101C13.7074 18.5185 13.6038 18.2649 13.6001 18.0001C13.5994 17.8685 13.6246 17.738 13.6743 17.6162C13.7241 17.4944 13.7974 17.3835 13.8901 17.2901L19.8201 11.3701C20.0114 11.2063 20.2575 11.1207 20.5092 11.1304C20.7608 11.1401 20.9996 11.2444 21.1777 11.4225C21.3558 11.6006 21.4601 11.8394 21.4698 12.091C21.4795 12.3427 21.3939 12.5888 21.2301 12.7801L16.0001 18.0001L21.2101 23.2201C21.3964 23.4075 21.5009 23.6609 21.5009 23.9251C21.5009 24.1893 21.3964 24.4427 21.2101 24.6301C21.0288 24.8101 20.7855 24.9138 20.5301 24.9201Z" fill="#C4C6D1"/>
</svg>
