<svg width="20" height="20" viewBox="0 0 20 20" fill="none" xmlns="http://www.w3.org/2000/svg">
<path d="M16.4447 11.7763L15.4229 10.9028C15.4713 10.606 15.4963 10.3028 15.4963 10.0013C15.4963 9.69971 15.4713 9.39502 15.4229 9.09971L16.4447 8.22627C16.5219 8.16019 16.5772 8.07217 16.6031 7.97393C16.6291 7.87568 16.6245 7.77186 16.59 7.67627L16.576 7.63565C16.2947 6.84923 15.8734 6.12026 15.3322 5.48408L15.3041 5.45127C15.2384 5.37401 15.1508 5.31847 15.0529 5.29197C14.955 5.26547 14.8514 5.26926 14.7557 5.30283L13.4869 5.7544C13.0182 5.37002 12.4963 5.0669 11.9307 4.85596L11.6854 3.5294C11.6668 3.42946 11.6184 3.33752 11.5464 3.2658C11.4744 3.19407 11.3822 3.14595 11.2822 3.12783L11.24 3.12002C10.4275 2.97315 9.57129 2.97315 8.75879 3.12002L8.7166 3.12783C8.6166 3.14595 8.52447 3.19407 8.45247 3.2658C8.38046 3.33752 8.33199 3.42946 8.31348 3.5294L8.0666 4.86221C7.50633 5.07482 6.9844 5.37721 6.52129 5.75752L5.24317 5.30283C5.14749 5.26899 5.04378 5.26507 4.94581 5.29158C4.84785 5.3181 4.76028 5.37379 4.69473 5.45127L4.6666 5.48408C4.12643 6.12094 3.70514 6.84972 3.42285 7.63565L3.40879 7.67627C3.33848 7.87158 3.39629 8.09033 3.5541 8.22627L4.58848 9.10908C4.54004 9.40283 4.5166 9.70283 4.5166 9.99971C4.5166 10.2997 4.54004 10.5997 4.58848 10.8903L3.55723 11.7731C3.48003 11.8392 3.42479 11.9272 3.39883 12.0255C3.37287 12.1237 3.37744 12.2276 3.41192 12.3231L3.42598 12.3638C3.70879 13.1497 4.12598 13.8763 4.66973 14.5153L4.69785 14.5481C4.76356 14.6254 4.85114 14.6809 4.94904 14.7074C5.04695 14.7339 5.15058 14.7302 5.24629 14.6966L6.52442 14.2419C6.99004 14.6247 7.50879 14.9278 8.06973 15.1372L8.3166 16.47C8.33511 16.57 8.38359 16.6619 8.45559 16.7336C8.5276 16.8053 8.61972 16.8535 8.71973 16.8716L8.76192 16.8794C9.58241 17.0271 10.4227 17.0271 11.2432 16.8794L11.2854 16.8716C11.3854 16.8535 11.4775 16.8053 11.5495 16.7336C11.6215 16.6619 11.67 16.57 11.6885 16.47L11.9338 15.1435C12.4994 14.931 13.0213 14.6294 13.49 14.245L14.7588 14.6966C14.8545 14.7304 14.9582 14.7343 15.0561 14.7078C15.1541 14.6813 15.2417 14.6256 15.3072 14.5481L15.3354 14.5153C15.8791 13.8731 16.2963 13.1497 16.5791 12.3638L16.5932 12.3231C16.6604 12.1294 16.6025 11.9122 16.4447 11.7763ZM10.0025 12.5919C8.48535 12.5919 7.25567 11.3622 7.25567 9.84502C7.25567 8.32783 8.48535 7.09815 10.0025 7.09815C11.5197 7.09815 12.7494 8.32783 12.7494 9.84502C12.7494 11.3622 11.5197 12.5919 10.0025 12.5919Z" fill="#DBDFE8"/>
</svg>
