<svg width="60" height="60" viewBox="0 0 60 60" fill="none" xmlns="http://www.w3.org/2000/svg">
<rect width="60" height="60" rx="8" fill="#005296"/>
<path d="M33 39H37C38.1046 39 39 38.1046 39 37V23C39 21.8954 38.1046 21 37 21H32C30.8954 21 30 21.8954 30 23V25H31M33 39V27C33 25.8954 32.1046 25 31 25M33 39H23C21.8954 39 21 38.1046 21 37V27C21 25.8954 21.8954 25 23 25H31M24 28H30M24 31H30M25 39V35C25 34.4477 25.4477 34 26 34H28C28.5523 34 29 34.4477 29 35V39H25Z" stroke="white" stroke-width="1.5" stroke-linecap="round" stroke-linejoin="round"/>
</svg>
