<svg width="20" height="21" viewBox="0 0 20 21" fill="none" xmlns="http://www.w3.org/2000/svg">
<path d="M1.66667 8.83333L1.01549 8.46123C0.950729 8.57455 0.916668 8.70281 0.916668 8.83333H1.66667ZM18.3333 8.83333H19.0833C19.0833 8.70281 19.0493 8.57455 18.9845 8.46123L18.3333 8.83333ZM15.4799 3.83977L16.1311 3.46766L16.1311 3.46766L15.4799 3.83977ZM4.52013 3.83977L3.86895 3.46766L4.52013 3.83977ZM3.33333 16.3333L2.58333 16.3333V16.3333H3.33333ZM4.16667 11.4167C3.75245 11.4167 3.41667 11.7525 3.41667 12.1667C3.41667 12.5809 3.75245 12.9167 4.16667 12.9167V11.4167ZM5.83333 12.9167C6.24755 12.9167 6.58333 12.5809 6.58333 12.1667C6.58333 11.7525 6.24755 11.4167 5.83333 11.4167V12.9167ZM14.1667 11.4167C13.7525 11.4167 13.4167 11.7525 13.4167 12.1667C13.4167 12.5809 13.7525 12.9167 14.1667 12.9167V11.4167ZM15.8333 12.9167C16.2475 12.9167 16.5833 12.5809 16.5833 12.1667C16.5833 11.7525 16.2475 11.4167 15.8333 11.4167V12.9167ZM1.66667 8.83333V9.58333H18.3333V8.83333V8.08333H1.66667V8.83333ZM18.3333 8.83333H17.5833V13.8333H18.3333H19.0833V8.83333H18.3333ZM16.6667 15.5V14.75H3.33334V15.5V16.25H16.6667V15.5ZM1.66667 13.8333H2.41667V8.83333H1.66667H0.916668V13.8333H1.66667ZM1.66667 8.83333L2.31785 9.20544L5.17132 4.21187L4.52013 3.83977L3.86895 3.46766L1.01549 8.46123L1.66667 8.83333ZM5.96721 3V3.75H14.0328V3V2.25H5.96721V3ZM15.4799 3.83977L14.8287 4.21187L17.6822 9.20544L18.3333 8.83333L18.9845 8.46123L16.1311 3.46766L15.4799 3.83977ZM14.0328 3V3.75C14.3617 3.75 14.6655 3.92626 14.8287 4.21187L15.4799 3.83977L16.1311 3.46766C15.7008 2.71469 14.9 2.25 14.0328 2.25V3ZM4.52013 3.83977L5.17132 4.21187C5.33452 3.92626 5.63825 3.75 5.96721 3.75V3V2.25C5.09997 2.25 4.29922 2.71469 3.86895 3.46766L4.52013 3.83977ZM3.33334 15.5V14.75C2.82707 14.75 2.41667 14.3396 2.41667 13.8333H1.66667H0.916668C0.916668 15.168 1.99865 16.25 3.33334 16.25V15.5ZM18.3333 13.8333H17.5833C17.5833 14.3396 17.1729 14.75 16.6667 14.75V15.5V16.25C18.0014 16.25 19.0833 15.168 19.0833 13.8333H18.3333ZM6.66667 15.5H5.91667V16.3333H6.66667H7.41667V15.5H6.66667ZM3.33333 16.3333L4.08333 16.3333L4.08334 15.5L3.33334 15.5L2.58334 15.5L2.58333 16.3333L3.33333 16.3333ZM5 18V17.25C4.49374 17.25 4.08333 16.8396 4.08333 16.3333H3.33333H2.58333C2.58333 17.668 3.66531 18.75 5 18.75V18ZM6.66667 16.3333H5.91667C5.91667 16.8396 5.50626 17.25 5 17.25V18V18.75C6.33469 18.75 7.41667 17.668 7.41667 16.3333H6.66667ZM16.6667 15.5H15.9167V16.3333H16.6667H17.4167V15.5H16.6667ZM13.3333 16.3333H14.0833V15.5H13.3333H12.5833V16.3333H13.3333ZM15 18V17.25C14.4937 17.25 14.0833 16.8396 14.0833 16.3333H13.3333H12.5833C12.5833 17.668 13.6653 18.75 15 18.75V18ZM16.6667 16.3333H15.9167C15.9167 16.8396 15.5063 17.25 15 17.25V18V18.75C16.3347 18.75 17.4167 17.668 17.4167 16.3333H16.6667ZM4.16667 12.1667V12.9167H5.83333V12.1667V11.4167H4.16667V12.1667ZM14.1667 12.1667V12.9167H15.8333V12.1667V11.4167H14.1667V12.1667Z" fill="white"/>
</svg>
