<svg width="20" height="21" viewBox="0 0 20 21" fill="none" xmlns="http://www.w3.org/2000/svg">
<path d="M8.33333 13H5.83333C4.94928 13 4.10143 13.3512 3.47631 13.9763C2.85119 14.6014 2.5 15.4493 2.5 16.3333V18M12.5 6.33333C12.5 8.17428 11.0076 9.66667 9.16667 9.66667C7.32572 9.66667 5.83333 8.17428 5.83333 6.33333C5.83333 4.49238 7.32572 3 9.16667 3C11.0076 3 12.5 4.49238 12.5 6.33333ZM14.5837 17.1372L13.0754 17.9669C13.0307 17.9913 12.9803 18.0022 12.93 17.9984C12.8797 17.9946 12.8313 17.9761 12.7904 17.9451C12.7495 17.9141 12.7176 17.8717 12.6983 17.8228C12.679 17.7739 12.673 17.7202 12.681 17.6679L12.9692 15.9101L11.749 14.6656C11.7126 14.6286 11.6868 14.5816 11.6746 14.53C11.6624 14.4784 11.6643 14.4242 11.68 14.3737C11.6957 14.3231 11.7246 14.2782 11.7635 14.2441C11.8024 14.21 11.8496 14.188 11.8997 14.1807L13.5858 13.9241L14.34 12.3252C14.3625 12.2776 14.3973 12.2375 14.4404 12.2095C14.4834 12.1815 14.5331 12.1667 14.5837 12.1667C14.6344 12.1667 14.684 12.1815 14.7271 12.2095C14.7702 12.2375 14.8049 12.2776 14.8275 12.3252L15.5816 13.9241L17.2677 14.1807C17.3178 14.1883 17.3648 14.2104 17.4035 14.2445C17.4421 14.2787 17.471 14.3235 17.4866 14.374C17.5023 14.4244 17.5042 14.4785 17.4922 14.53C17.4801 14.5815 17.4546 14.6285 17.4184 14.6656L16.1983 15.9101L16.4858 17.6672C16.4944 17.7196 16.4889 17.7735 16.4698 17.8228C16.4507 17.872 16.4189 17.9147 16.3779 17.9459C16.3369 17.9771 16.2883 17.9956 16.2378 17.9993C16.1873 18.003 16.1368 17.9918 16.0921 17.9669L14.5837 17.1372Z" stroke="white" stroke-width="1.5" stroke-linecap="round" stroke-linejoin="round"/>
</svg>
