<svg width="61" height="43" viewBox="0 0 61 43" fill="none" xmlns="http://www.w3.org/2000/svg">
<path d="M1 8.42576L30.0415 1.70508L60 8.42576M1.95161 41.7051H59.0484" stroke="white" stroke-width="2"/>
<path d="M6.06865 15.8037C6.06865 14.9092 5.71286 14.3023 5.15695 14.3023C4.62327 14.3023 4.26749 14.9092 4.26749 15.8037V32.6065C4.26749 33.5009 4.62327 34.1079 5.15695 34.1079C5.71286 34.1079 6.06865 33.5009 6.06865 32.6065V15.8037ZM7.33614 32.2551C7.33614 34.3315 6.46891 35.7051 5.15695 35.7051C3.86723 35.7051 3 34.3315 3 32.2551V16.1551C3 14.0787 3.86723 12.7051 5.15695 12.7051C6.46891 12.7051 7.33614 14.0787 7.33614 16.1551V32.2551Z" fill="white"/>
<path d="M14.7276 35.3856H11.3921V13.0245H12.6596V33.6926H14.7276V35.3856Z" fill="white"/>
<path d="M20.0065 25.8981L18.072 13.1523L18.0497 13.0245H19.3839L19.4062 13.0884V13.1842L20.6514 23.3745L21.8077 13.1842C21.8077 13.1842 21.8077 13.1523 21.8077 13.1204L21.83 13.0245H23.1641V13.0884C23.1419 13.1523 23.1419 13.1842 23.1419 13.1842L21.274 25.9301V35.3856H20.0065V25.8981Z" fill="white"/>
<path d="M30.222 26.7606L31.5785 13.0245H33.3352V35.3856H32.0677V17.2412L30.778 30.7856L30.3555 35.3856H30.0886L29.6439 30.7856L28.3764 17.2731V35.3856H27.1089V13.0245H28.8434L30.222 26.7606Z" fill="white"/>
<path d="M37.3911 35.3856V13.0245H39.7482C41.0602 13.0245 41.9496 14.3662 41.9496 16.3787V22.8954C41.9496 25.1315 41.0602 26.6329 39.7482 26.6329H38.6586V35.3856H37.3911ZM38.6586 25.0356H39.7482C40.3041 25.0356 40.6821 24.1731 40.6821 22.8954V16.4106C40.6821 15.3565 40.3041 14.6217 39.7482 14.6217H38.6586V25.0356Z" fill="white"/>
<path d="M48.7184 15.8037C48.7184 14.9092 48.3627 14.3023 47.8067 14.3023C47.2731 14.3023 46.9173 14.9092 46.9173 15.8037V32.6065C46.9173 33.5009 47.2731 34.1079 47.8067 34.1079C48.3627 34.1079 48.7184 33.5009 48.7184 32.6065V15.8037ZM49.9859 32.2551C49.9859 34.3315 49.1187 35.7051 47.8067 35.7051C46.517 35.7051 45.6498 34.3315 45.6498 32.2551V16.1551C45.6498 14.0787 46.517 12.7051 47.8067 12.7051C49.1187 12.7051 49.9859 14.0787 49.9859 16.1551V32.2551Z" fill="white"/>
<path d="M53.6861 31.137H54.9536V32.5426C54.9536 33.469 55.3094 34.1079 55.8208 34.1079C56.3545 34.1079 56.7103 33.3092 56.7103 32.0954C56.7103 29.7954 56.2211 27.0162 55.2649 24.5884C54.242 22.0329 53.7083 19.2856 53.7083 16.5704C53.7083 14.2384 54.5756 12.7051 55.8653 12.7051C56.8659 12.7051 57.622 13.5037 57.8888 14.7495C57.9555 15.1009 58 15.4842 58 15.8676V17.0815H56.7325V15.8676C56.7325 14.9412 56.3767 14.3023 55.8653 14.3023C55.3094 14.3023 54.9536 15.1009 54.9536 16.2829C54.9536 18.6467 55.465 21.1065 56.4212 23.5662C57.4441 26.1217 57.9778 29.1884 57.9778 31.744C57.9778 34.1398 57.1105 35.7051 55.8208 35.7051C54.8202 35.7051 54.0641 34.9065 53.7973 33.6606C53.7306 33.3092 53.6861 32.9259 53.6861 32.5426V31.137Z" fill="white"/>
</svg>
